<svg enable-background="new 0 0 256 256" height="256" viewBox="0 0 256 256" width="256" xmlns="http://www.w3.org/2000/svg">
    <g>
        <path d="m163.345 156.995c0 18.421-14.933 33.356-33.357 33.356h-3.889c-18.425 0-33.361-14.936-33.361-33.356v-33.708c0-18.422 14.937-33.356 33.361-33.356h3.889c18.424 0 33.357 14.935 33.357 33.356z" fill="#76ffd0"/>
        <path d="m228.348 29.98c-1.694-.474-3.464.51-3.943 2.209-2.589 9.18-6.136 21.752-16.285 24.288-7.583 1.896-45.551 3.267-59.541 3.635-1.764.046-3.157 1.513-3.11 3.278.045 1.735 1.467 3.11 3.192 3.11.028 0 .057 0 .086-.001 2.021-.053 48.282-1.294 59.962-3.609l-17.907 105.012c-.135.311-.236.639-.268.992-1.063 11.955-6.88 18.863-21.465 25.492-10.75 4.887-9.86 20.356-9.817 21.012.022.338.108.653.226.953-8.852.991-19.196 1.655-31.051 1.655-12.13 0-22.717-.8-31.768-1.978.043-.178.077-.36.09-.549.043-.656.932-16.124-9.817-21.011-14.586-6.629-20.403-13.538-21.465-25.493-.032-.353-.133-.68-.268-.987l-1.548-9.08c-.296-1.739-1.941-2.892-3.687-2.614-1.739.297-2.909 1.949-2.612 3.688l1.599 9.379c-2.81 5.472-14.561 31.024-2.727 54.994.557 1.129 1.689 1.783 2.868 1.783.475 0 .957-.107 1.412-.331 1.582-.781 2.232-2.697 1.451-4.28-1.27-2.572-2.209-5.182-2.902-7.789 8.941 3.46 32.026 10.659 69.376 10.659 36.285 0 58.779-5.989 68.052-9.116-.637 2.061-1.425 4.123-2.433 6.164-.781 1.584-.131 3.498 1.451 4.279.455.225.937.331 1.412.331 1.178 0 2.311-.653 2.868-1.782 7.101-14.386 5.538-29.451 2.976-39.555-.435-1.714-2.17-2.748-3.883-2.312-1.71.434-2.745 2.172-2.312 3.882 1.48 5.837 2.587 13.502 1.528 21.595-2.641 1.062-13.456 5.059-32.481 7.701.025-.194.036-.395.023-.598-.008-.117-.641-11.725 6.084-14.779 11.851-5.387 23.04-12.702 25.046-29.449.041-.132.083-.265.107-.404l18.796-110.225c9.108-5.717 12.512-17.766 14.893-26.205.478-1.7-.51-3.463-2.208-3.944zm-166.878 149.828c4.27 10.626 13.333 16.17 22.817 20.48 6.724 3.056 6.091 14.663 6.084 14.772-.001.019.003.036.002.055-21.195-3.42-32.225-8.673-32.659-8.885-.954-10.273 1.446-19.911 3.756-26.422z"/>
        <path d="m111.261 115.144c-4.27 0-7.723-.621-9.987-1.793-1.569-.812-3.497-.199-4.307 1.368-.812 1.567-.2 3.495 1.367 4.307 3.214 1.665 7.564 2.509 12.927 2.509 4.908 0 9.764-.695 13.117-1.312v19.529c-3.031.604-8.097 1.432-13.117 1.432-4.27 0-7.725-.62-9.989-1.792-1.567-.812-3.495-.2-4.307 1.368-.811 1.565-.198 3.494 1.369 4.307 3.213 1.665 7.563 2.508 12.927 2.508 4.908 0 9.764-.693 13.117-1.311v19.525c-3.036.604-8.113 1.434-13.119 1.434-4.27 0-7.723-.62-9.987-1.792-1.567-.812-3.496-.199-4.307 1.367-.812 1.567-.2 3.496 1.368 4.307 3.214 1.666 7.562 2.509 12.926 2.509 4.908 0 9.766-.694 13.119-1.311v4.284c0 1.765 1.431 3.195 3.196 3.195s3.195-1.431 3.195-3.195v-4.407c2.76.521 6.876 1.09 11.704 1.09 5.146 0 10.055-.647 14.591-1.925 1.699-.477 2.688-2.243 2.209-3.942-.478-1.699-2.245-2.682-3.942-2.209-3.972 1.119-8.298 1.687-12.858 1.687-5.13 0-9.388-.726-11.704-1.224v-19.517c2.76.521 6.876 1.091 11.704 1.091 5.146 0 10.055-.648 14.591-1.927 1.699-.477 2.688-2.243 2.209-3.941-.478-1.698-2.245-2.681-3.942-2.21-3.972 1.119-8.298 1.688-12.858 1.688-5.131 0-9.389-.728-11.704-1.224v-19.517c2.76.521 6.876 1.091 11.704 1.091 5.146 0 10.055-.647 14.59-1.927 1.699-.478 2.688-2.242 2.209-3.941-.479-1.698-2.244-2.682-3.942-2.209-3.971 1.118-8.297 1.687-12.857 1.687-5.13 0-9.388-.727-11.704-1.223v-18.119c0-1.765-1.431-3.195-3.195-3.195-1.765 0-3.196 1.431-3.196 3.195v18.252c-3.037.604-8.112 1.433-13.117 1.433z"/>
        <path d="m127.573 190.076c-1.765 0-3.196 1.43-3.196 3.195v3.38c0 1.765 1.431 3.196 3.196 3.196s3.195-1.432 3.195-3.196v-3.38c.001-1.765-1.43-3.195-3.195-3.195z"/>
        <path d="m53.807 139.186c.266 1.558 1.617 2.659 3.146 2.659.178 0 .359-.015.542-.045 1.739-.297 2.909-1.948 2.612-3.688l-12.815-75.139c11.68 2.316 57.94 3.557 59.962 3.61.028.001.057.001.086.001 1.726 0 3.146-1.376 3.192-3.112.047-1.763-1.346-3.231-3.11-3.278-13.99-.367-51.956-1.736-59.541-3.633-10.148-2.537-13.696-15.11-16.285-24.289-.479-1.699-2.246-2.682-3.943-2.208-1.699.479-2.687 2.244-2.208 3.942 2.382 8.44 5.786 20.49 14.894 26.207z"/>
        <path d="m135.582 83.328c1.935-.045 7.354-.134 9.169-.006 12.962.904 16.066 10.406 19.662 21.408 3.228 9.881 6.887 21.081 19.174 24.297.271.069.543.105.811.105 1.418 0 2.713-.952 3.089-2.389.447-1.706-.575-3.454-2.282-3.9-8.912-2.331-11.603-10.563-14.717-20.097-3.767-11.527-8.036-24.595-25.291-25.801-2.439-.168-9.021-.023-9.763-.005-1.764.04-3.161 1.503-3.121 3.267.041 1.766 1.484 3.175 3.269 3.121z"/>
        <path d="m85.513 102.746c-3.115 9.533-5.805 17.766-14.717 20.097-1.707.446-2.729 2.194-2.282 3.9.375 1.437 1.671 2.389 3.089 2.389.268 0 .54-.035.811-.105 12.287-3.216 15.945-14.416 19.174-24.297 3.596-11.002 6.699-20.504 19.661-21.408 1.816-.128 7.236-.038 9.169.006 1.802.063 3.229-1.355 3.269-3.121.04-1.764-1.356-3.227-3.121-3.267-.743-.019-7.323-.163-9.763.005-17.254 1.206-21.524 14.274-25.29 25.801z"/>
    </g>
</svg>
