<svg enable-background="new 0 0 256 256" height="256" viewBox="0 0 256 256" width="256" xmlns="http://www.w3.org/2000/svg">
    <g>
        <path d="m171.867 126.484c0 20.558-16.664 37.224-37.224 37.224h-4.342c-20.56 0-37.226-16.666-37.226-37.224v-37.612c0-20.558 16.666-37.223 37.226-37.223h4.342c20.56 0 37.224 16.665 37.224 37.223z" fill="#76ffd0"/>
        <path d="m127.425 152.836c-1.77 0-3.203 1.434-3.203 3.203v3.204c0 1.768 1.434 3.203 3.203 3.203 1.77 0 3.203-1.435 3.203-3.203v-3.204c0-1.769-1.432-3.203-3.203-3.203z"/>
        <path d="m133.92 168.608c.166 1.651 1.558 2.884 3.185 2.884.107 0 .215-.006.323-.017 21.174-2.13 37.14-19.806 37.14-41.114v-46.654c0-1.77-1.434-3.203-3.203-3.203s-3.203 1.434-3.203 3.203v46.654c0 18.004-13.488 32.94-31.375 34.739-1.76.177-3.044 1.749-2.867 3.508z"/>
        <path d="m83.505 132.66c1.769 0 3.203-1.433 3.203-3.203v-46.494c0-.015 0-.026 0-.039 0-.014 0-.026 0-.04 0-17.968 13.457-32.899 31.301-34.732 1.761-.182 3.041-1.755 2.86-3.516-.182-1.758-1.741-3.043-3.516-2.859-21.123 2.172-37.053 19.845-37.053 41.107v46.573c.001 1.771 1.435 3.203 3.205 3.203z"/>
        <path d="m113.411 74.184c-3.411 0-6.148-.551-7.919-1.594-1.523-.896-3.488-.39-4.387 1.135-.896 1.524-.389 3.487 1.135 4.386 2.795 1.646 6.553 2.48 11.171 2.48 3.792 0 7.543-.556 10.327-1.104v18.757c-2.511.553-6.463 1.255-10.378 1.255-3.41 0-6.15-.551-7.921-1.595-1.523-.896-3.488-.391-4.386 1.136-.897 1.523-.39 3.487 1.135 4.386 2.794 1.646 6.552 2.481 11.172 2.481 3.815 0 7.589-.564 10.378-1.115v18.681c-2.479.562-6.643 1.34-10.766 1.34-3.409 0-6.148-.55-7.918-1.594-1.521-.896-3.489-.39-4.387 1.135-.897 1.523-.39 3.487 1.135 4.387 2.794 1.645 6.553 2.48 11.17 2.48 3.994 0 7.944-.616 10.766-1.192v2.563c0 1.769 1.434 3.203 3.203 3.203 1.77 0 3.204-1.435 3.204-3.203v-2.531c2.282.433 5.34.834 8.835.834 4.376 0 8.553-.627 12.413-1.864 1.686-.541 2.613-2.345 2.073-4.028-.539-1.686-2.349-2.612-4.027-2.074-3.23 1.035-6.747 1.56-10.459 1.56-3.708 0-6.855-.529-8.835-.969v-18.846c2.318.458 5.52.908 9.222.908 4.376 0 8.553-.627 12.413-1.864 1.686-.541 2.613-2.343 2.073-4.028-.539-1.686-2.347-2.609-4.028-2.073-3.229 1.035-6.746 1.56-10.458 1.56-3.953 0-7.279-.603-9.222-1.056v-18.775c2.323.463 5.541.92 9.273.92 4.376 0 8.553-.627 12.413-1.865 1.685-.54 2.613-2.344 2.073-4.027-.539-1.687-2.346-2.611-4.029-2.074-3.227 1.035-6.745 1.56-10.457 1.56-3.991 0-7.34-.615-9.273-1.067v-19.654c0-1.771-1.435-3.204-3.204-3.204-1.77 0-3.203 1.434-3.203 3.204v19.803c-2.514.55-6.438 1.242-10.327 1.242z"/>
        <path d="m218.186 209.566c-2.23-6.942-8-19.719-12.212-29.047-2.075-4.591-3.865-8.557-4.546-10.309-7.255-18.686-22.288-67.257-5.233-114.578.601-1.665-.264-3.501-1.927-4.101-1.668-.604-3.501.264-4.101 1.928-17.789 49.358-2.227 99.712 5.287 119.069.471 1.211 1.341 3.199 2.473 5.728-5.689 2.472-25.753 9.499-69.914 9.499-7.376 0-14.641-.24-21.588-.709-1.747-.122-3.294 1.212-3.412 2.979-.121 1.766 1.213 3.294 2.979 3.413 7.091.48 14.501.725 22.021.725 44.98 0 65.957-7.188 72.547-10.063 1.157 2.562 2.411 5.346 3.668 8.176-7.31 2.676-32.447 10.538-75.573 10.538-42.498 0-68.125-8.791-76.022-11.979 1.027-2.301 2.036-4.538 2.977-6.624 2.837 1.154 10.288 3.775 24.47 6.206.185.031.366.047.546.047 1.531 0 2.886-1.102 3.153-2.662.3-1.744-.872-3.399-2.615-3.699-13.383-2.294-20.393-4.734-22.919-5.739 1.045-2.342 1.854-4.195 2.299-5.342 7.517-19.358 23.078-69.713 5.289-119.07-.6-1.665-2.433-2.532-4.101-1.928-1.664.6-2.527 2.434-1.927 4.1 17.055 47.322 2.021 95.893-5.234 114.579-.68 1.751-2.471 5.717-4.545 10.309-4.212 9.327-9.982 22.104-12.212 29.045-.542 1.685.385 3.489 2.069 4.03.325.104.656.155.981.155 1.354 0 2.611-.866 3.049-2.226 1.202-3.743 3.554-9.414 6.12-15.3 8.332 3.441 34.469 12.504 78.621 12.504 45.028 0 70.652-8.216 78.153-11.051 2.23 5.174 4.208 10.027 5.278 13.356.438 1.358 1.695 2.225 3.049 2.225.325 0 .656-.05.981-.155 1.685-.54 2.613-2.345 2.071-4.029z"/>
    </g>
</svg>
