<svg enable-background="new 0 0 256 256" height="256" viewBox="0 0 256 256" width="256" xmlns="http://www.w3.org/2000/svg">
    <g>
        <path d="m145.121 66.293c19.344 0 35.029 15.681 35.029 35.028v4.084c0 19.348-15.685 35.033-35.029 35.033h-35.395c-19.346 0-35.03-15.686-35.03-35.033v-4.084c0-19.347 15.684-35.028 35.03-35.028z" fill="#76ffd0"/>
        <path d="m104.355 51.858c1.525-.361 2.47-1.891 2.108-3.417s-1.89-2.471-3.418-2.109c-.089.021-3.336.787-7.849 1.771.386-.569.774-1.167 1.163-1.829 4.674-7.947 7.464-14.65 7.581-14.931.6-1.449-.089-3.109-1.538-3.709-1.449-.597-3.109.089-3.709 1.537-.027.066-2.766 6.637-7.229 14.224-3.154 5.363-5.92 6.609-6.605 6.847-5.979 1.159-11.959 2.152-15.352 2.256-11.209.345-22.107 4.627-29.897 11.75-1.158 1.058-1.238 2.854-.18 4.012.56.613 1.327.923 2.096.923.684 0 1.371-.246 1.916-.744 6.802-6.22 16.367-9.961 26.241-10.264 9.079-.278 33.631-6.07 34.672-6.317z"/>
        <path d="m36.898 71.239c-1.315-.857-3.074-.483-3.929.831-7.583 11.654-9.195 27.403-4.686 45.623-4.583 5.148-20.262 25.805-9.499 57.262.403 1.179 1.506 1.92 2.687 1.92.305 0 .615-.049.92-.154 1.484-.507 2.275-2.122 1.767-3.606-11.04-32.262 8.41-51.764 9.238-52.573.738-.715 1.033-1.772.771-2.766-4.631-17.524-3.432-31.86 3.562-42.609.855-1.314.483-3.073-.831-3.928z"/>
        <path d="m103.765 79.966c-1.063 7.276-5.763 27.001-14.616 30.843-1.438.625-2.098 2.296-1.475 3.735.465 1.07 1.51 1.71 2.607 1.71.377 0 .76-.076 1.128-.235 5.856-2.541 10.67-9.344 14.309-20.218 2.591-7.746 3.623-14.722 3.665-15.016.226-1.552-.849-2.992-2.4-3.218-1.553-.223-2.991.848-3.218 2.399z"/>
        <path d="m176.376 215.446c-.159.075-16.205 7.456-47.879 7.456-26.467 0-42.247-5.864-46.779-7.823-2.691-63.518-5.758-87.73-11.668-92.327-6.932-5.391-7.755-11.208-8.894-19.258l-.222-1.558c-.225-1.552-1.667-2.631-3.217-2.404-1.552.225-2.628 1.665-2.403 3.217l.22 1.541c1.174 8.302 2.283 16.143 11.03 22.945.541.42 3.363 3.798 5.856 29.089 1.778 18.021 2.903 41.764 3.685 60.435.012.275.074.533.157.782.167.799.663 1.523 1.441 1.934.704.372 17.626 9.107 50.794 9.107 33.108 0 49.627-7.677 50.314-8.004 1.413-.672 2.014-2.362 1.344-3.777-.67-1.417-2.363-2.021-3.779-1.355z"/>
        <path d="m186.492 53.433c-3.392-.104-9.372-1.097-15.353-2.256-.686-.238-3.451-1.485-6.604-6.848-4.462-7.586-7.202-14.158-7.229-14.223-.601-1.448-2.26-2.135-3.71-1.537-1.449.6-2.137 2.26-1.538 3.709.117.281 2.907 6.984 7.581 14.93.388.66.775 1.259 1.161 1.83-4.512-.984-7.758-1.75-7.848-1.771-1.527-.361-3.056.584-3.417 2.108-.361 1.526.583 3.057 2.108 3.417 1.041.247 25.594 6.038 34.673 6.317 9.874.303 19.438 4.043 26.24 10.263.545.498 1.232.744 1.916.744.769 0 1.536-.311 2.096-.923 1.059-1.157.979-2.953-.179-4.011-7.788-7.123-18.685-11.405-29.897-11.749z"/>
        <path d="m227.718 118.627c4.508-18.22 2.896-33.97-4.688-45.623-.855-1.314-2.615-1.687-3.929-.831-1.314.855-1.686 2.615-.831 3.929 6.897 10.598 8.129 25.332 3.564 42.609-.263.993.032 2.051.77 2.766.205.198 20.324 20.173 9.237 52.574-.508 1.484.283 3.099 1.767 3.606.305.104.615.154.919.154 1.181 0 2.283-.742 2.687-1.921 10.765-31.458-4.914-52.115-9.496-57.263z"/>
        <path d="m150.282 96.733c3.638 10.875 8.452 17.678 14.309 20.219.369.16.751.235 1.129.235 1.097 0 2.142-.639 2.606-1.709.624-1.438-.036-3.111-1.475-3.735-8.854-3.842-13.552-23.567-14.616-30.843-.226-1.551-1.66-2.625-3.219-2.399-1.551.226-2.626 1.667-2.4 3.218.043.293 1.074 7.269 3.666 15.014z"/>
        <path d="m198.285 100.465c-1.558-.225-2.992.851-3.217 2.403l-.223 1.563c-1.14 8.048-1.962 13.864-8.893 19.254-6.63 5.157-9.59 24.142-11.729 75.239-.065 1.566 1.151 2.89 2.718 2.956.041.001.081.002.121.002 1.513 0 2.77-1.194 2.835-2.721.893-21.33 2.751-65.712 9.542-70.994 8.745-6.802 9.854-14.641 11.03-22.94l.22-1.545c.224-1.551-.853-2.992-2.404-3.217z"/>
        <path d="m127.219 209.278h.007c1.565 0 2.835-1.267 2.839-2.833l.307-118.624c.004-1.568-1.264-2.843-2.832-2.847-.003 0-.005 0-.007 0-1.565 0-2.836 1.267-2.839 2.833l-.308 118.624c-.003 1.569 1.265 2.843 2.833 2.847z"/>
    </g>
</svg>
