<svg enable-background="new 0 0 256 256" height="256" viewBox="0 0 256 256" width="256" xmlns="http://www.w3.org/2000/svg">
    <g>
        <path d="m160.524 56.536c-5.5 0-9.959 4.459-9.959 9.96l-.161-5.072c0-5.238-4.246-9.485-9.485-9.485s-9.486 4.247-9.486 9.485v2.298c-.566-4.694-4.559-8.334-9.406-8.334-5.242 0-9.487 4.245-9.487 9.482v.229c-1.468-3.669-5.049-6.266-9.243-6.266-.068 0-.133.01-.199.011-.051-.001-.103-.009-.153-.009-4.317 0-7.954 2.889-9.104 6.836-.324.982-.506 2.03-.506 3.122v20.031l14.496-.096 2.297 12.44c0 .673 23.157 2.104 23.157 2.104l-13.302 12.538s-26.131-.752-25.854.581c1.561 7.504 5.337 14.233 10.589 19.533v75.728h59.764v-81.105s7.082-5.934 6.004-40.888c-.178-5.788 0-23.164 0-23.164-.001-5.5-4.46-9.959-9.962-9.959z" fill="#76ffd0"/>
        <path d="m251.532 90.102h-10.421v-23.402c0-5.583-4.544-10.124-10.13-10.124-6.316.005-9.285.008-10.696.013v-5.024c0-6.348-5.593-11.512-12.465-11.512-6.873 0-12.466 5.164-12.466 11.512v.126c0 1.586 1.284 2.871 2.87 2.871 1.587 0 2.871-1.285 2.871-2.871v-.126c0-3.181 3.018-5.77 6.725-5.77 3.706 0 6.723 2.589 6.723 5.77v50.439c0 1.586 1.285 2.87 2.871 2.87 1.585 0 2.871-1.284 2.871-2.87v-39.674c2.96-.006 10.7-.012 10.698-.012 2.418 0 4.385 1.965 4.385 4.382v64.99c0 2.417-1.967 4.383-4.385 4.383l-10.698-.003v-20.287c0-1.586-1.286-2.871-2.871-2.871-1.586 0-2.871 1.285-2.871 2.871v31.044c0 3.18-3.017 5.769-6.723 5.769-3.707 0-6.725-2.589-6.725-5.769 0-.374-.071-.732-.2-1.059.129-.327.2-.685.2-1.058v-79.24c0-1.585-1.284-2.871-2.871-2.871-1.586 0-2.87 1.286-2.87 2.871v24.631h-18.226c-1.423-3.891-4.612-6.932-8.604-8.13v-14.498c0-7.074-5.756-12.831-12.831-12.831-3.122 0-5.984 1.123-8.212 2.984-1.871-4.449-6.273-7.581-11.395-7.581-4.673 0-8.748 2.609-10.848 6.446-2.163-1.863-4.971-2.998-8.044-2.998-4.596 0-8.607 2.526-10.736 6.259-2.194-1.755-4.972-2.813-7.995-2.813-.067 0-.131.01-.198.011-.051-.001-.103-.008-.153-.008-5.6 0-10.334 3.746-11.846 8.863-.408 1.249-.635 2.58-.635 3.965v12.166c-3.584 1.137-6.174 4.066-7.256 8.166h-18.495v-38.538c0-6.348-5.592-11.512-12.466-11.512-6.873 0-12.464 5.164-12.464 11.512v5.024c-1.413-.005-4.381-.008-10.7-.013-5.584 0-10.126 4.541-10.126 10.124v23.401h-9.656c-1.586 0-2.871 1.285-2.871 2.871v12.445c0 1.586 1.285 2.871 2.871 2.871h9.656v23.401c0 5.583 4.542 10.124 10.126 10.124h10.7v5.013c0 6.347 5.591 11.511 12.464 11.511 6.874 0 12.466-5.164 12.466-11.511v-23.936c0-1.586-1.285-2.871-2.871-2.871s-2.871 1.285-2.871 2.871v23.936c0 3.18-3.015 5.769-6.724 5.769-3.707 0-6.723-2.589-6.723-5.769v-59.752c0-1.585-1.285-2.871-2.871-2.871s-2.87 1.286-2.87 2.871v48.987l-10.7.013c-2.418 0-4.385-1.966-4.385-4.383v-64.99c0-2.417 1.967-4.382 4.383-4.382 0 0 7.741.005 10.702.011v10.963c0 1.586 1.284 2.871 2.87 2.871s2.871-1.285 2.871-2.871v-21.728c0-3.181 3.016-5.77 6.723-5.77 3.709 0 6.724 2.589 6.724 5.77v57.545c0 1.586 1.285 2.872 2.871 2.872s2.871-1.286 2.871-2.872v-.82h18.269c.998 4.366 4.163 7.906 8.301 9.438 1.53 7.576 5.164 14.578 10.565 20.335v72.143h-6.191c-1.586 0-2.871 1.285-2.871 2.871 0 1.585 1.285 2.871 2.871 2.871h34.738c1.586 0 2.871-1.286 2.871-2.871 0-1.586-1.285-2.871-2.871-2.871h-22.806v-73.302c0-.757-.299-1.482-.832-2.021-4.579-4.622-7.789-10.229-9.389-16.325h25.172c-.873 1.799-1.645 3.772-2.279 5.947-.445 1.521.429 3.115 1.952 3.559.268.078.539.116.805.116 1.243 0 2.389-.813 2.754-2.068 5.694-19.504 23.726-19.861 24.518-19.866 1.583-.004 2.863-1.288 2.863-2.871 0-1.586-1.284-2.871-2.87-2.871-.023 0-.234.003-.604.024-.262-.077-.533-.132-.818-.132h-27.021c-3.646 0-6.612-2.968-6.612-6.614s2.966-6.612 6.612-6.612h36.892c3.374-.04 5.627.572 6.906 1.838 1.246 1.231 1.89 3.413 1.979 6.626v11.702c0 9.416-3.747 18.384-10.553 25.25-.532.539-.831 1.265-.831 2.021v75.597.002h-7.463c-1.586 0-2.87 1.285-2.87 2.871 0 1.585 1.284 2.871 2.87 2.871h18.375c1.585 0 2.871-1.286 2.871-2.871 0-1.586-1.286-2.871-2.871-2.871h-5.169v-.002-74.439c4.691-5 8.024-10.903 9.825-17.263 5.517-.468 9.648-4.491 10.704-10.213h17.683v36.422c0 .373.071.73.2 1.058-.129.326-.2.685-.2 1.059 0 6.347 5.593 11.511 12.466 11.511 6.872 0 12.465-5.164 12.465-11.511v-5.013h10.698c5.584 0 10.128-4.541 10.128-10.124v-23.401h10.421c1.586 0 2.871-1.285 2.871-2.871v-12.445c-.001-1.586-1.286-2.871-2.872-2.871zm-244.193 12.445v-6.703h6.785v6.703zm148.354-42.162c3.909 0 7.09 3.18 7.09 7.088v13.937h-7.774c-.11 0-.214.021-.32.034-.273-.006-.533-.021-.814-.019h-5.269v-13.952c-.001-3.909 3.178-7.088 7.087-7.088zm-19.607-4.598c3.647 0 6.615 2.967 6.615 6.613v16.891c0 .321.064.623.161.911v1.224h-13.314v-15.578c0-.455-.027-.901-.076-1.342v-2.106c0-3.646 2.968-6.613 6.614-6.613zm-44.589 25.382v-11.871c0-.62.092-1.22.253-1.789.927-2.741 3.483-4.733 6.516-4.817 3.577.083 6.461 3.011 6.461 6.606v11.871c0 3.646-2.968 6.614-6.614 6.614s-6.616-2.968-6.616-6.614zm-31.364 14.675h17.675v6.703h-17.675zm56.873 10.294h11.426c-2.505 1.676-4.973 3.854-7.164 6.677h-30.253c-4.116 0-7.465-3.348-7.465-7.464v-10.734c0-1.965.417-6.208 3.897-7.236 2.146 3.668 6.116 6.145 10.664 6.145 2.495 0 4.815-.749 6.76-2.027-.139.742-.22 1.503-.22 2.283.001 6.812 5.543 12.356 12.355 12.356zm-5.713-23.3v-13.068c0-1.457-.256-2.851-.704-4.154.124-3.539 3.035-6.381 6.605-6.381 3.322 0 6.072 2.467 6.535 5.663v14.394c0 .22.029.432.076.637v1.498h-6.8c-2.06-.001-4.002.513-5.712 1.411zm56.909 29.556c.207-1.67.322-3.356.322-5.059v-10.832c.005-.062.02-.12.02-.182 0-.2-.015-.383-.02-.579v-.224c0-.033-.008-.067-.009-.101-.081-2.698-.163-5.112-1.251-6.803-.97-1.506-.834-1.118-.834-1.118s.486-.062 1.552.409c2.533 1.121 4.216 3.761 4.216 6.711v10.733c0 2.977-1.256 5.969-3.996 7.045zm26.773-9.847h-17.034v-6.703h17.034zm53.686 0h-7.55v-6.703h7.55z"/>
    </g>
</svg>
