<svg enable-background="new 0 0 256 256" height="256" viewBox="0 0 256 256" width="256" xmlns="http://www.w3.org/2000/svg">
    <g>
        <path d="m144.874 112.026c18.25 0 33.044 14.792 33.044 33.041v3.854c0 18.249-14.794 33.044-33.044 33.044h-33.387c-18.248 0-33.043-14.795-33.043-33.044v-3.854c0-18.249 14.795-33.041 33.043-33.041z" fill="#76ffd0"/>
        <path d="m110.138 82.947c1.578.045 2.846-1.192 2.884-2.746s-1.19-2.846-2.745-2.883c-.637-.016-8.634-.209-17.495-.357 1.229-1.292 2.467-2.869 3.622-4.834 4.741-8.058 7.57-14.854 7.687-15.139.596-1.438-.088-3.084-1.525-3.679-1.437-.596-3.084.089-3.678 1.525-.027.066-2.795 6.716-7.338 14.439-3.721 6.326-8.121 7.458-8.551 7.555-5.067-.05-9.615-.057-12.32.026-11.357.349-22.398 4.687-30.291 11.903-1.148 1.049-1.227 2.831-.178 3.978.554.608 1.314.916 2.078.916.678 0 1.359-.244 1.898-.737 6.914-6.321 16.633-10.123 26.666-10.431 8.845-.273 38.983.457 39.286.464z"/>
        <path d="m37.557 95.855c-1.305-.848-3.049-.479-3.896.824-7.689 11.813-9.318 27.785-4.738 46.267-4.611 5.171-20.572 26.12-9.646 58.055.4 1.169 1.494 1.905 2.664 1.905.303 0 .609-.05.913-.153 1.47-.504 2.255-2.104 1.751-3.576-11.213-32.771 8.547-52.583 9.389-53.406.732-.709 1.025-1.756.764-2.742-4.701-17.797-3.483-32.359 3.623-43.279.848-1.303.48-3.047-.824-3.895z"/>
        <path d="m227.077 142.474c6.151-24.794.049-39.992-6.237-48.422-7.927-10.625-21.204-17.231-35.521-17.672-2.11-.064-5.345-.074-9.067-.051-.84-.173-4.729-1.265-8.136-7.057-4.531-7.701-7.311-14.373-7.338-14.439-.596-1.436-2.242-2.118-3.679-1.524-1.437.595-2.12 2.242-1.525 3.679.117.285 2.946 7.081 7.688 15.139 1.012 1.721 2.085 3.138 3.16 4.311-10.05.15-19.985.39-20.699.407-1.554.037-2.781 1.329-2.744 2.883.037 1.531 1.289 2.747 2.812 2.747.023 0 .047 0 .07-.001.23-.005 17.771-.431 30.025-.513.068.005.135.01.203.01.046 0 .089-.01.135-.013 3.687-.022 6.876-.014 8.92.05 12.616.388 24.271 6.148 31.181 15.41 8.137 10.91 9.837 26.518 4.916 45.138-.26.986.033 2.034.765 2.742.207.201 20.648 20.495 9.389 53.406-.504 1.472.28 3.072 1.752 3.576.303.104.609.153.912.153 1.171 0 2.264-.736 2.664-1.905 10.926-31.935-5.035-52.882-9.646-58.054z"/>
        <path d="m114.797 158.431c-10.265-.271-38.11-1.273-43.642-2.657-6.652-1.662-9.201-8.916-11.627-17.516-.423-1.497-1.979-2.367-3.475-1.946-1.498.422-2.367 1.978-1.945 3.475 1.591 5.64 3.793 13.442 9.178 18.078l3.77 29.05c.183 1.42 1.395 2.454 2.788 2.454.12 0 .243-.008.366-.023 1.542-.2 2.629-1.613 2.428-3.154l-3.253-25.081c.139.039.264.092.405.127 7.259 1.814 43.326 2.781 44.857 2.822.026.001.052.001.077.001 1.52 0 2.772-1.212 2.813-2.742.042-1.554-1.186-2.847-2.74-2.888z"/>
        <path d="m199.946 136.313c-1.494-.416-3.051.45-3.473 1.946-2.427 8.6-4.976 15.854-11.628 17.516-5.529 1.384-33.377 2.387-43.641 2.657-1.555.041-2.781 1.334-2.742 2.888.041 1.53 1.295 2.742 2.814 2.742.025 0 .051 0 .076-.001 1.531-.041 37.6-1.008 44.858-2.822.436-.109.841-.255 1.252-.394l-3.319 25.59c-.201 1.542.887 2.954 2.43 3.154.123.016.244.023.365.023 1.395 0 2.605-1.034 2.789-2.454l3.869-29.83c.014-.105.007-.208.009-.312 4.733-4.696 6.788-11.916 8.288-17.229.42-1.496-.449-3.052-1.947-3.474z"/>
        <path d="m127.935 171.226c-1.556 0-2.816 1.261-2.816 2.815v16.432c0 1.556 1.261 2.816 2.816 2.816s2.814-1.261 2.814-2.816v-16.432c0-1.554-1.259-2.815-2.814-2.815z"/>
    </g>
</svg>
