<svg enable-background="new 0 0 256 256" height="256" viewBox="0 0 256 256" width="256" xmlns="http://www.w3.org/2000/svg">
    <g>
        <path d="m180.401 140.799c0 5.657-4.626 10.285-10.283 10.285h-73.349c-5.656 0-10.282-4.628-10.282-10.285v-12.965c0-5.657 4.626-10.284 10.282-10.284h73.349c5.657 0 10.283 4.627 10.283 10.284z" fill="#76ffd0"/>
        <path d="m251.624 118.952h-10.369v-23.283c0-5.555-4.521-10.074-10.077-10.074-6.286.006-9.24.01-10.644.013v-4.999c0-6.315-5.563-11.453-12.402-11.453-6.838 0-12.403 5.138-12.403 11.453v.126c0 1.578 1.279 2.856 2.856 2.856 1.578 0 2.857-1.279 2.857-2.856v-.126c0-3.166 3-5.74 6.69-5.74 3.688 0 6.688 2.574 6.688 5.74v50.184c0 1.578 1.279 2.857 2.857 2.857 1.577 0 2.856-1.279 2.856-2.857v-39.473c2.943-.005 10.648-.011 10.646-.011 2.403 0 4.36 1.956 4.36 4.36v64.662c0 2.404-1.957 4.361-4.36 4.361l-10.646-.002v-20.186c0-1.577-1.279-2.856-2.856-2.856-1.578 0-2.857 1.279-2.857 2.856v30.887c0 3.166-3.001 5.74-6.688 5.74-3.69 0-6.69-2.575-6.69-5.74 0-.372-.071-.727-.201-1.053.13-.326.201-.681.201-1.053v-78.84c0-1.578-1.279-2.856-2.857-2.856-1.577 0-2.856 1.279-2.856 2.856v24.506h-18.724c-1.197-6.021-6.519-10.575-12.885-10.575h-73.348c-6.368 0-11.689 4.554-12.885 10.575h-18.377v-38.342c0-6.315-5.564-11.453-12.401-11.453-6.84 0-12.403 5.138-12.403 11.453v4.999c-1.404-.004-4.357-.007-10.645-.013-5.557 0-10.075 4.519-10.075 10.074v23.283h-9.609c-1.578 0-2.857 1.278-2.857 2.856v12.384c0 1.578 1.279 2.856 2.857 2.856h9.607v23.283c0 5.555 4.519 10.074 10.075 10.074h10.645v4.986c0 6.315 5.564 11.453 12.403 11.453 6.838 0 12.401-5.138 12.401-11.453v-23.814c0-1.578-1.279-2.857-2.856-2.857-1.579 0-2.856 1.279-2.856 2.857v23.814c0 3.166-3 5.74-6.688 5.74-3.69 0-6.691-2.575-6.691-5.74v-59.452c0-1.578-1.277-2.857-2.855-2.857-1.579 0-2.857 1.279-2.857 2.857v48.741l-10.645.012c-2.406 0-4.362-1.957-4.362-4.361v-64.662c0-2.404 1.956-4.36 4.36-4.36 0 0 7.701.006 10.647.012v10.908c0 1.579 1.277 2.857 2.857 2.857 1.578 0 2.855-1.278 2.855-2.857v-21.62c0-3.166 3.001-5.74 6.691-5.74 3.688 0 6.688 2.574 6.688 5.74v57.256c0 1.578 1.277 2.857 2.856 2.857 1.577 0 2.856-1.279 2.856-2.857v-.817h18.377c1.195 6.021 6.517 10.576 12.885 10.576h73.348c6.366 0 11.688-4.555 12.885-10.576h18.724v36.238c0 .372.072.727.201 1.053-.129.326-.201.681-.201 1.053 0 6.315 5.565 11.453 12.403 11.453 6.839 0 12.402-5.138 12.402-11.453v-4.986h10.646c5.553 0 10.074-4.519 10.074-10.074v-23.283h10.369c1.577 0 2.856-1.278 2.856-2.856v-12.384c.003-1.579-1.276-2.857-2.853-2.857zm-244.391 12.383v-6.671h6.752v6.671zm52.529-6.67h17.869v6.671h-17.869zm111.783 9.817c0 4.096-3.331 7.427-7.426 7.427h-73.347c-4.096 0-7.429-3.331-7.429-7.427v-.269c0-.008.002-.014.002-.022v-12.384c0-.008-.002-.015-.002-.022v-.269c0-4.096 3.333-7.427 7.429-7.427h73.348c4.095 0 7.426 3.332 7.426 7.427v.291 12.384.291zm23.806-3.147h-18.092v-6.671h18.092zm53.416 0h-7.513v-6.671h7.513z"/>
    </g>
</svg>
