<svg enable-background="new 0 0 256 256" height="256" viewBox="0 0 256 256" width="256" xmlns="http://www.w3.org/2000/svg">
    <g>
        <circle cx="134.921" cy="191.253" fill="#76ffd0" r="37.673"/>
        <path d="m219.668 76.758c-4.544-20.698-15.648-34.837-33.944-43.224-13.994-6.413-32.23-9.4-57.391-9.4-18.128 0-31.992 1.347-43.633 4.239-27.01 6.715-42.898 22.542-48.571 48.385-3.955 18.02 1.894 37.496 7.495 50.661 4.462 10.484 9.914 19.589 12.698 23.589-5.754 11.361-8.788 24.064-8.788 36.867 0 23.939 10.523 46.518 28.506 61.954h-30.823c-1.704 0-3.086 1.381-3.086 3.086s1.381 3.085 3.086 3.085h163.529c1.705 0 3.085-1.381 3.085-3.085s-1.381-3.086-3.085-3.086h-26.436c17.983-15.435 28.506-38.015 28.506-61.954 0-13.46-3.347-26.754-9.697-38.575 2.438-3.604 7.741-12.062 11.902-21.942 7.744-18.394 9.98-35.419 6.647-50.6zm-177.511 1.323c5.192-23.649 19.183-37.541 44.032-43.719 11.14-2.768 24.531-4.057 42.144-4.057 36.997 0 76.065 5.676 85.308 47.776.992 4.518 1.428 9.234 1.331 14.13h-23.575c.097-3.066-.12-6.12-.77-9.079-3.641-16.581-10.538-29.266-62.294-29.266-52.56 0-59.522 12.684-63.163 29.266-.649 2.956-.863 6.01-.764 9.079h-23.318c-.232-4.785.062-9.545 1.069-14.13zm134.103 43.115c-13.822-9.8-30.025-14.962-47.085-14.962-17.638 0-34.873 5.762-48.935 16.292-6.289-11.465-11.549-26.651-9.042-38.07 2.635-12.004 5.36-24.419 57.135-24.419 50.906 0 53.631 12.415 56.267 24.419 2.839 12.932-4.277 28.993-8.34 36.74zm18.888 25.897c-.851.989-.989 2.405-.343 3.539 6.437 11.316 9.839 24.193 9.839 37.243 0 24.491-11.908 47.451-31.905 61.616h-87.128c-19.997-14.165-31.905-37.125-31.905-61.616 0-12.444 3.098-24.782 8.958-35.682.638-1.187.429-2.637-.487-3.594-2.826-3.435-17.255-26.355-20.507-50.217h23.334c1.834 11.604 7.271 22.569 10.426 28.185-1.588 1.574-2.922 3.129-2.998 3.219-1.105 1.296-.951 3.243.345 4.349.581.496 1.292.738 2.001.738.871 0 1.738-.367 2.349-1.082.023-.027 2.302-2.689 4.178-4.258 13.444-11.045 30.445-17.127 47.869-17.127 16.884 0 32.86 5.469 46.199 15.814.123.096.259.168.394.243 1.729 1.575 3.555 3.706 3.576 3.73.61.714 1.477 1.081 2.349 1.081.708 0 1.42-.242 2.001-.739 1.296-1.105 1.45-3.053.345-4.349-.075-.087-1.337-1.557-2.864-3.085 3.237-5.976 7.951-16.074 9.626-26.721h23.766c-.913 8.399-3.318 17.28-7.234 26.581-4.752 11.288-11.257 20.919-12.184 22.132z"/>
        <path d="m129.823 154.831c10.637.424 20.437 6.036 26.216 15.014.589.917 1.583 1.416 2.597 1.416.572 0 1.15-.159 1.666-.491 1.433-.922 1.847-2.831.925-4.265-6.866-10.667-18.514-17.336-31.159-17.84-1.728-.076-3.138 1.257-3.206 2.96-.067 1.703 1.258 3.138 2.961 3.206z"/>
        <path d="m164.309 184.298c-1.705 0-3.086 1.381-3.086 3.085l.001.149c0 18.046-14.683 32.729-32.729 32.729-18.047 0-32.728-14.683-32.728-32.729 0-1.887.161-3.776.479-5.616.291-1.679-.835-3.276-2.515-3.566-1.682-.289-3.275.835-3.566 2.514-.378 2.186-.57 4.43-.57 6.668 0 21.449 17.45 38.899 38.899 38.899 21.45 0 38.9-17.451 38.9-38.936l-.001-.112c.002-1.704-1.38-3.085-3.084-3.085z"/>
        <path d="m82.843 46.45c.339 0 .684-.056 1.022-.175 2.487-.873 5.174-1.656 7.986-2.328 1.657-.396 2.68-2.061 2.284-3.718-.396-1.658-2.06-2.68-3.718-2.284-3.019.721-5.911 1.564-8.596 2.508-1.608.565-2.455 2.326-1.89 3.934.447 1.268 1.638 2.063 2.912 2.063z"/>
        <path d="m50.704 74.146c.391.164.795.241 1.193.241 1.205 0 2.35-.711 2.846-1.891 1.072-2.553 2.333-4.971 3.748-7.188v-.001c3.974-6.225 9.219-11.093 16.038-14.882 1.489-.828 2.025-2.707 1.197-4.196s-2.707-2.026-4.195-1.198c-7.632 4.241-13.771 9.949-18.247 16.963-.002.003-.003.006-.005.01-1.6 2.507-3.023 5.233-4.227 8.102-.658 1.573.08 3.381 1.652 4.04z"/>
    </g>
</svg>
