<svg enable-background="new 0 0 256 256" height="256" viewBox="0 0 256 256" width="256" xmlns="http://www.w3.org/2000/svg">
    <g>
        <g fill="#76ffd0">
            <path d="m145.656 148.105c-3.465-4.102-9.161-3.343-9.161-3.343l-7.427.03s-5.692-.761-9.158 3.341c-2.409 2.852-.146 10.17-7.646 12.67v15.563c0 9.854 8.682 17.844 19.39 17.844h2.261c10.708 0 19.387-7.99 19.387-17.844v-15.594c-7.501-2.497-5.235-9.816-7.646-12.667z"/>
            <circle cx="41.893" cy="62.245" r="13.257"/>
            <circle cx="222.56" cy="64.245" r="13.257"/>
        </g>
        <path d="m88.004 87.849c6.136-.187 27.074.318 27.285.323.022.001.043.001.063.001 1.403 0 2.557-1.118 2.59-2.529.037-1.43-1.096-2.619-2.527-2.653-.292-.007-2.8-.067-6.234-.138.588-.724 1.17-1.537 1.726-2.483 3.318-5.642 5.304-10.408 5.387-10.607.546-1.323-.081-2.838-1.404-3.387-1.321-.546-2.838.081-3.386 1.401-.02.047-1.938 4.65-5.064 9.966-2.467 4.192-5.355 4.913-5.55 4.958-.005.001-.009.003-.014.004-5.174-.077-10.371-.119-13.029-.038-1.431.045-2.555 1.239-2.512 2.67.043 1.43 1.219 2.547 2.669 2.512z"/>
        <path d="m140.794 87.844h.064c.21-.006 21.148-.512 27.285-.323 1.408.033 2.625-1.081 2.669-2.513.044-1.431-1.08-2.624-2.512-2.669-2.582-.079-7.562-.042-12.588.03-.011-.001-.02-.005-.03-.006-.117-.017-2.887-.484-5.322-4.622-3.125-5.314-5.044-9.918-5.062-9.965-.548-1.32-2.064-1.947-3.386-1.401-1.323.549-1.952 2.063-1.404 3.387.081.199 2.067 4.966 5.385 10.607.472.802.961 1.514 1.456 2.146-3.63.073-6.314.138-6.616.146-1.432.035-2.564 1.224-2.528 2.654.033 1.411 1.186 2.529 2.589 2.529z"/>
        <path d="m126.022 149.297v8.531c-1.516.271-3.637.566-5.742.566-2.563 0-3.949-.439-4.661-.809-1.275-.657-2.836-.159-3.495 1.111-.656 1.271-.159 2.836 1.111 3.494 1.779.921 4.149 1.387 7.045 1.387 2.067 0 4.105-.235 5.742-.495v8.048c-1.516.271-3.636.565-5.741.565-2.564 0-3.951-.438-4.664-.807-1.273-.656-2.836-.161-3.494 1.112-.655 1.271-.159 2.834 1.112 3.493 1.779.919 4.149 1.386 7.046 1.386 2.066 0 4.104-.234 5.741-.494v8.046c-1.516.272-3.638.567-5.744.567-2.562 0-3.948-.441-4.66-.809-1.275-.655-2.835-.159-3.495 1.111-.655 1.271-.159 2.836 1.111 3.494 1.78.92 4.149 1.387 7.044 1.387 2.067 0 4.105-.235 5.744-.495v1.057c0 1.431 1.16 2.591 2.593 2.591 1.432 0 2.592-1.16 2.592-2.591v-1.12c1.36.207 3.077.385 5.021.385 2.716 0 5.311-.344 7.714-1.02 1.378-.388 2.18-1.819 1.792-3.198-.388-1.378-1.819-2.187-3.197-1.792-1.945.548-4.068.826-6.309.826-2.052 0-3.819-.235-5.021-.454v-8.05c1.36.206 3.077.384 5.021.384 2.716 0 5.311-.342 7.714-1.019 1.378-.388 2.18-1.819 1.792-3.198-.388-1.376-1.819-2.185-3.197-1.791-1.945.548-4.068.825-6.309.825-2.053 0-3.819-.235-5.021-.454v-8.05c1.36.207 3.077.385 5.021.385 2.716 0 5.311-.343 7.714-1.02 1.378-.388 2.18-1.819 1.792-3.197s-1.819-2.186-3.197-1.793c-1.945.548-4.068.825-6.309.825-2.052 0-3.819-.235-5.021-.453v-8.469c0-1.431-1.16-2.592-2.592-2.592-1.433.002-2.593 1.163-2.593 2.594z"/>
        <path d="m128.615 196.678c-1.433 0-2.593 1.16-2.593 2.591v1.728c0 1.432 1.16 2.592 2.593 2.592 1.432 0 2.592-1.16 2.592-2.592v-1.728c0-1.431-1.16-2.591-2.592-2.591z"/>
        <path d="m151.561 203.685c6.278-2.852 12.196-6.75 13.322-15.664.029-.099.062-.195.079-.299l9.529-55.886c4.683-3.17 6.427-9.35 7.657-13.717.39-1.377-.412-2.809-1.791-3.197-1.376-.387-2.81.413-3.198 1.791-1.631 5.786-3.332 10.664-7.629 11.737-3.389.849-19.924 1.559-30.21 1.829-1.432.038-2.56 1.229-2.523 2.659.037 1.409 1.189 2.524 2.59 2.524.022 0 .046 0 .068-.001 2.426-.064 22.017-.605 29.438-1.64l-8.906 52.233c-.079.214-.142.436-.163.674-.513 5.775-3.237 8.977-10.407 12.235-5.398 2.455-5.625 9.435-5.592 11.24-4.271.446-9.191.74-14.774.74-5.757 0-10.827-.355-15.211-.889.013-2.06-.366-8.674-5.592-11.049-7.169-3.26-9.894-6.462-10.407-12.235-.021-.234-.082-.454-.16-.665l-.776-4.556c-.24-1.409-1.586-2.351-2.991-2.119-1.412.239-2.36 1.578-2.12 2.99l.765 4.48c-1.705 3.427-7.304 16.42-1.256 28.671.45.915 1.37 1.445 2.325 1.445.386 0 .777-.086 1.146-.268 1.284-.634 1.811-2.188 1.178-3.472-.326-.66-.604-1.325-.849-1.993 5.593 1.918 16.913 4.843 33.949 4.843 16.564 0 27.582-2.439 33.218-4.123-.17.412-.352.822-.555 1.231-.632 1.284-.105 2.838 1.178 3.472.368.181.761.269 1.145.269.956 0 1.875-.531 2.326-1.446 3.758-7.612 3.199-13.832 1.851-19.15-.353-1.39-1.761-2.23-3.149-1.875-1.39.35-2.228 1.761-1.875 3.148.697 2.753.971 4.605.567 8.388-1.833.685-6.752 2.314-14.74 3.509.048-1.508.401-4.89 2.543-5.864zm-56.531-8.732c2.532 4.31 6.715 6.793 11.072 8.774 2.018.916 2.448 3.946 2.533 5.565-8.321-1.439-13.29-3.393-14.799-4.045-.265-3.804.373-7.415 1.194-10.294z"/>
        <path d="m89.981 171.799c.216 1.264 1.312 2.156 2.553 2.156.145 0 .291-.012.438-.037 1.411-.24 2.36-1.58 2.12-2.99l-6.321-37.065c7.42 1.036 27.013 1.578 29.438 1.642.022.001.044.001.068.001 1.4 0 2.553-1.116 2.59-2.524.036-1.43-1.092-2.621-2.523-2.658-10.286-.271-26.821-.982-30.212-1.83-4.295-1.072-5.996-5.95-7.628-11.737-.388-1.376-1.823-2.178-3.2-1.792-1.377.39-2.179 1.822-1.79 3.2 1.232 4.366 2.977 10.547 7.66 13.715z"/>
        <path d="m132.668 144.061c.02 0 .039 0 .06-.001 1.358-.031 3.806-.061 4.597-.005 5.687.396 7.2 4.164 9.198 10.278 1.727 5.28 3.683 11.267 10.467 13.042.219.057.44.084.657.084 1.15 0 2.202-.771 2.507-1.936.361-1.387-.468-2.803-1.852-3.165-3.854-1.008-5.113-4.318-6.852-9.637-1.918-5.872-4.308-13.178-13.766-13.84-1.288-.088-4.693-.015-5.077-.005-1.431.031-2.564 1.221-2.53 2.651.032 1.412 1.185 2.534 2.591 2.534z"/>
        <path d="m106.215 152.723c-1.738 5.317-3 8.628-6.851 9.636-1.384.362-2.214 1.778-1.852 3.165.305 1.164 1.356 1.936 2.507 1.936.217 0 .438-.027.657-.084 6.783-1.775 8.738-7.762 10.465-13.042 1.998-6.114 3.511-9.882 9.198-10.278.791-.055 3.24-.026 4.597.005 1.407.047 2.618-1.101 2.649-2.531.035-1.431-1.1-2.62-2.529-2.651-.385-.01-3.787-.082-5.077.005-9.461.66-11.847 7.967-13.764 13.839z"/>
        <path d="m254.626 113.601c-.018-21.495-4.872-58.44-15.271-69.748-2.828-3.077-8.378-4.305-12.629-4.428-5.689-.158-10.69 1.411-13.69 4.321-1.482 1.438-2.066 3.419-2.298 4.843-5.446 2.84-9.18 8.532-9.18 15.089 0 9.385 7.633 17.018 17.016 17.018 1.19 0 2.352-.125 3.474-.358l-1.344 11.494c-2.938-3.026-7.039-4.917-11.58-4.917-3.654 0-7.151 1.229-9.972 3.446-3.891-4.813-9.805-7.701-16.088-7.701-1.432 0-2.593 1.161-2.593 2.592 0 1.432 1.161 2.593 2.593 2.593 5.526 0 10.676 2.983 13.435 7.787.421.734 1.174 1.216 2.017 1.291.837.078 1.667-.266 2.213-.912 2.095-2.485 5.153-3.911 8.395-3.911 6.047 0 10.968 4.921 10.968 10.968 0 1.432 1.16 2.593 2.593 2.593 1.431 0 2.592-1.161 2.592-2.593 0-1.057-.109-2.088-.304-3.088l2.553-21.855c4.832-3.005 8.066-8.348 8.066-14.445 0-9.383-7.634-17.017-17.017-17.017-.331 0-.654.031-.98.05 2.099-1.429 5.348-2.201 8.985-2.104 4.537.131 7.826 1.519 8.96 2.753 8.951 9.736 13.902 45.418 13.902 66.359 0 .083.005.165.014.248.004.058.419 5.866-2.682 6.75-.06.017-.111.046-.169.067-.086.031-.173.062-.256.103-.075.036-.143.08-.213.122-.073.046-.147.09-.217.143-.068.053-.131.111-.193.171-.059.056-.119.108-.174.17-.065.074-.121.153-.178.234-.031.045-.07.083-.1.132-2.901 4.748-11.926 15.431-32.988 12.096-5.366-.852-10.112-3.454-13.021-7.142-.456-.579-1.137-.935-1.872-.981-.748-.042-1.456.224-1.979.738-3.249 3.196-7.383 5.037-12.641 5.63-1.423.16-2.445 1.443-2.286 2.866.162 1.422 1.442 2.446 2.868 2.285 5.433-.612 9.93-2.353 13.667-5.297 3.686 3.613 8.815 6.127 14.452 7.021 1.699.268 4.501.604 7.896.604 8.947 0 22.003-2.335 29.824-14.331 4.883-2.095 5.74-8.196 5.432-11.749zm-24.22-49.923c0 6.525-5.307 11.834-11.832 11.834-6.524 0-11.831-5.309-11.831-11.834 0-4.965 3.078-9.219 7.423-10.972.02-.008.042-.014.061-.022 1.348-.535 2.812-.838 4.347-.838 6.525 0 11.832 5.308 11.832 11.832z"/>
        <path d="m210.997 63.678c0 4.18 3.398 7.58 7.577 7.58 4.18 0 7.579-3.4 7.579-7.58 0-4.178-3.399-7.578-7.579-7.578-4.179 0-7.577 3.4-7.577 7.578zm9.971 0c0 1.321-1.073 2.396-2.395 2.396-1.321 0-2.394-1.074-2.394-2.396 0-1.319 1.072-2.395 2.394-2.395s2.395 1.075 2.395 2.395z"/>
        <path d="m37.426 55.666c-4.181 0-7.58 3.399-7.58 7.579 0 4.179 3.399 7.578 7.58 7.578 4.178 0 7.576-3.399 7.576-7.578.001-4.18-3.398-7.579-7.576-7.579zm0 9.973c-1.322 0-2.396-1.072-2.396-2.393s1.073-2.396 2.396-2.396c1.32 0 2.393 1.074 2.393 2.396s-1.072 2.393-2.393 2.393z"/>
        <path d="m73.224 131.766c-5.256-.593-9.389-2.434-12.636-5.628-.525-.518-1.239-.784-1.981-.74-.735.047-1.416.403-1.872.982-2.909 3.687-7.655 6.291-13.022 7.14-21.057 3.331-30.085-7.345-32.985-12.095-.031-.052-.072-.093-.107-.142-.054-.076-.106-.152-.169-.223-.056-.063-.117-.118-.179-.176-.062-.057-.122-.115-.189-.166-.07-.054-.146-.099-.221-.145-.068-.042-.135-.085-.208-.121-.085-.041-.173-.072-.261-.104-.057-.021-.107-.05-.166-.066-3.114-.889-2.686-6.7-2.681-6.75.008-.083.012-.165.012-.248 0-20.941 4.95-56.624 13.902-66.359 1.135-1.234 4.423-2.622 8.961-2.753 3.64-.094 6.887.676 8.984 2.104-.326-.019-.649-.05-.979-.05-9.384 0-17.018 7.635-17.018 17.018 0 6.097 3.234 11.439 8.067 14.444l2.552 21.849c-.195 1.003-.305 2.036-.305 3.096 0 1.432 1.161 2.592 2.592 2.592 1.432 0 2.593-1.16 2.593-2.592 0-6.05 4.922-10.97 10.97-10.97 3.24 0 6.3 1.425 8.394 3.91.546.646 1.378.992 2.214.913.842-.077 1.594-.558 2.015-1.29 2.761-4.805 7.909-7.788 13.437-7.788 1.432 0 2.592-1.16 2.592-2.592 0-1.433-1.16-2.593-2.592-2.593-6.283 0-12.196 2.888-16.089 7.7-2.82-2.216-6.316-3.445-9.97-3.445-4.541 0-8.643 1.891-11.581 4.917l-1.343-11.495c1.121.233 2.282.358 3.473.358 9.382 0 17.016-7.633 17.016-17.015 0-6.557-3.733-12.249-9.18-15.09-.231-1.424-.816-3.407-2.3-4.844-2.999-2.909-7.971-4.471-13.69-4.321-4.251.123-9.8 1.35-12.627 4.428-10.4 11.311-15.256 48.255-15.273 69.751-.307 3.556.551 9.655 5.434 11.747 7.819 11.998 20.871 14.331 29.817 14.331 3.396 0 6.199-.337 7.9-.605 5.636-.892 10.765-3.404 14.453-7.02 3.735 2.945 8.233 4.684 13.666 5.297 1.436.164 2.706-.864 2.866-2.287.162-1.422-.863-2.704-2.286-2.864zm-23.966-68.521c0 6.524-5.308 11.831-11.832 11.831-6.525 0-11.834-5.307-11.834-11.831s5.309-11.833 11.834-11.833c1.536 0 3 .304 4.348.838.02.01.041.015.062.023 4.345 1.753 7.422 6.007 7.422 10.972z"/>
    </g>
</svg>
