<svg enable-background="new 0 0 256 256" height="256" viewBox="0 0 256 256" width="256" xmlns="http://www.w3.org/2000/svg">
    <g>
        <path d="m135.508 201.404.113-.066c2.507-1.467 83.874-63.421 84.211-105.775.224-28.914-16.789-42.644-36.964-42.644-33.519 0-46.772 31.78-47.36 33.236-.59-1.456-13.844-33.236-47.37-33.236-20.17 0-37.18 13.729-36.963 42.644.338 42.355 81.716 104.308 84.215 105.775z" fill="#76ffd0"/>
        <path d="m57.362 92.917c0-1.681.141-3.395.419-5.092.315-1.913-.981-3.719-2.894-4.032-1.915-.32-3.718.981-4.031 2.895-.341 2.072-.514 4.168-.514 6.229 0 5.313 1.132 10.542 3.364 15.538.583 1.305 1.864 2.079 3.206 2.079.479 0 .966-.098 1.43-.306 1.77-.79 2.564-2.867 1.774-4.636-1.828-4.089-2.754-8.354-2.754-12.675z"/>
        <path d="m62.738 68.976c-1.538-1.181-3.74-.892-4.922.644-.12.156-1.209 1.594-2.531 4.071-.913 1.71-.268 3.837 1.442 4.75.526.282 1.093.414 1.65.414 1.253 0 2.467-.673 3.099-1.856 1.051-1.966 1.903-3.098 1.911-3.108 1.175-1.538.885-3.736-.649-4.915z"/>
        <path d="m222.187 134.488h-25.219c8.796-12.968 14.804-26.161 14.898-38.077.111-14.757-4.128-26.891-12.264-35.088-7.202-7.258-16.958-11.094-28.21-11.094-26.623 0-41.333 18.832-47.354 29.05-5.995-10.223-20.664-29.05-47.377-29.05-11.25 0-21.004 3.836-28.208 11.095-8.135 8.198-12.375 20.33-12.264 35.089.088 11.025 5.274 23.167 13.053 35.22h-15.43c-1.938 0-3.509 1.571-3.509 3.51s1.571 3.51 3.509 3.51h20.249c25.003 34.428 67.467 66.173 68.07 66.529.04.023.079.046.12.067.033.022.07.043.104.065.523.309 1.105.456 1.692.456.632 0 1.268-.171 1.835-.495.312-.177.588-.402.824-.664 5.782-4.313 41.92-32.277 65.225-63.105h30.256c1.938 0 3.51-1.571 3.51-3.51 0-1.937-1.572-3.508-3.51-3.508zm-178.977-38.131c-.099-12.844 3.438-23.248 10.228-30.089 5.854-5.9 13.886-9.02 23.224-9.02 31.209 0 43.6 29.77 44.113 31.038.534 1.324 1.818 2.192 3.248 2.194h.005c1.425 0 2.71-.863 3.249-2.185.519-1.267 13.024-31.048 44.115-31.048 9.34 0 17.371 3.119 23.227 9.019 6.79 6.839 10.324 17.244 10.226 30.089-.091 11.497-6.837 24.884-16.449 38.131h-38.463l-6.308-10.165c-.704-1.133-1.993-1.773-3.313-1.643-1.326.126-2.468.992-2.945 2.237l-10.31 26.868-17.829-42.86c-.489-1.174-1.574-1.992-2.838-2.138-1.282-.148-2.507.403-3.25 1.433l-16.889 23.414h-28.589c-8.536-12.312-14.367-24.614-14.452-35.275zm80.824 101.612c-8.869-6.471-40.274-32.158-61.225-59.316h25.238c1.127 0 2.186-.542 2.846-1.457l14.265-19.776 18.788 45.165c.545 1.311 1.825 2.163 3.241 2.163h.049c1.434-.021 2.713-.913 3.228-2.253l10.924-28.465 3.611 5.819c.641 1.032 1.768 1.659 2.982 1.659h35.054c-20.912 26.134-50.522 50.287-59.001 56.461z"/>
    </g>
</svg>
