<svg enable-background="new 0 0 256 256" height="256" viewBox="0 0 256 256" width="256" xmlns="http://www.w3.org/2000/svg">
    <g>
        <path d="m51.995 86.099v80.295h82.161l45.754-80.295z" fill="#76ffd0"/>
        <path d="m243.927 99.221h-13.653v-18.338c0-5.789-4.71-10.499-10.5-10.499h-200.289c-5.789 0-10.5 4.71-10.5 10.499v94.233c0 5.789 4.71 10.499 10.5 10.499h200.29c5.79 0 10.5-4.71 10.5-10.499v-18.336h13.653c1.706 0 3.088-1.383 3.088-3.089v-51.383c-.001-1.704-1.383-3.087-3.089-3.087zm-19.829 75.896c0 2.384-1.94 4.323-4.324 4.323h-200.289c-2.383 0-4.323-1.939-4.323-4.323v-94.234c0-2.383 1.94-4.323 4.323-4.323h200.29c2.384 0 4.324 1.94 4.324 4.323v94.234zm16.741-24.513h-10.564v-45.206h10.564z"/>
        <path d="m201.074 85.915h-129.762c-1.706 0-3.089 1.381-3.089 3.087s1.383 3.089 3.089 3.089h33.431l-41.126 71.271c-.102.178-.182.361-.246.548h-24.714c-.336 0-.618-.282-.618-.618v-70.583c0-.335.283-.617.618-.617h12.89c1.706 0 3.088-1.383 3.088-3.089s-1.383-3.087-3.088-3.087h-12.89c-3.747 0-6.795 3.047-6.795 6.793v70.584c0 3.746 3.048 6.795 6.795 6.795h162.417c3.746 0 6.793-3.049 6.793-6.795v-4.818c0-1.706-1.382-3.088-3.088-3.088-1.705 0-3.088 1.382-3.088 3.088v4.818c0 .336-.283.618-.617.618h-63.222l41.441-71.819h21.781c.334 0 .617.282.617.617v46.001c0 1.707 1.383 3.088 3.088 3.088 1.706 0 3.088-1.381 3.088-3.088v-46.001c0-3.747-3.047-6.794-6.793-6.794zm-70.353 77.996h-60.29l41.442-71.819h60.289z"/>
        <path d="m131.477 100.988c-1.194-.649-2.68-.404-3.605.593l-24.458 26.39c-.805.868-1.02 2.131-.545 3.215.474 1.086 1.545 1.788 2.729 1.788h5.94l-5.537 21.949c-.333 1.319.271 2.696 1.467 3.346.447.244.936.361 1.419.361.81 0 1.607-.33 2.186-.954l24.46-26.385c.805-.868 1.019-2.13.544-3.217-.473-1.085-1.545-1.786-2.729-1.786h-5.942l5.538-21.954c.333-1.319-.271-2.697-1.467-3.346zm-16.849 44.091 3.621-14.357c.225-.891.026-1.836-.538-2.559-.565-.725-1.432-1.148-2.35-1.148h-2.941l11.897-12.836-3.621 14.357c-.226.89-.026 1.835.538 2.559.564.725 1.431 1.148 2.35 1.148h2.942z"/>
    </g>
</svg>
