<svg enable-background="new 0 0 256 256" height="256" viewBox="0 0 256 256" width="256" xmlns="http://www.w3.org/2000/svg">
    <g>
        <circle cx="138.332" cy="67.35" fill="#76ffd0" r="34.015"/>
        <path d="m212.258 184.827c-.01-26.78-3.28-61.103-8.54-89.612-4.623-25.067-12.998-58.062-26.642-72.9-5.031-5.471-15.597-9.083-27.574-9.426-12.598-.361-23.539 3.03-30.009 9.304-3.48 3.375-4.45 8.397-4.72 11.224-12.624 5.896-21.396 18.708-21.396 33.536 0 20.401 16.598 36.999 36.999 36.999 4.139 0 8.115-.693 11.834-1.952l-4.58 39.179c-6.203-9.787-17.124-16.304-29.545-16.304-8.991 0-17.54 3.438-24.001 9.547-8.482-12.167-22.495-19.58-37.448-19.58-1.648 0-2.983 1.336-2.983 2.984s1.335 2.983 2.983 2.983c14.15 0 27.329 7.639 34.397 19.932.484.844 1.351 1.399 2.32 1.484.962.091 1.921-.305 2.548-1.05 5.53-6.566 13.616-10.333 22.184-10.333 15.988 0 28.996 13.007 28.996 28.994 0 1.648 1.335 2.984 2.983 2.984s2.983-1.336 2.983-2.984c0-2.466-.26-4.872-.748-7.194l6.25-53.481c11.227-6.359 18.824-18.41 18.824-32.208 0-20.401-16.598-36.998-36.998-36.998-3.155 0-6.219.399-9.145 1.145.426-1.638 1.154-3.4 2.415-4.622 5.243-5.085 14.812-7.936 25.686-7.624 10.107.29 19.493 3.305 23.352 7.501 21.929 23.849 33.607 107.433 33.607 158.602 0 .096.006.191.015.286.015.162 1.454 16.361-8.573 19.227-.057.016-.105.045-.16.064-.114.04-.229.081-.338.135-.077.038-.148.084-.221.128-.092.056-.184.11-.269.176-.076.058-.144.123-.213.188-.071.065-.144.13-.209.204-.072.082-.134.171-.197.26-.038.055-.085.101-.12.159-4.461 7.299-10.155 13.435-16.93 18.237-1.343.951-1.66 2.814-.707 4.159.582.821 1.501 1.258 2.436 1.258.597 0 1.198-.178 1.724-.549 7.136-5.061 13.162-11.471 17.954-19.042 5.636-2.054 9.443-7.009 11.047-14.409 1.095-5.066.802-9.692.729-10.611zm-50.852-117.875c0 17.111-13.92 31.03-31.03 31.03-17.112 0-31.031-13.919-31.031-31.03 0-12.934 7.956-24.041 19.23-28.693.135-.044.266-.093.391-.154 3.534-1.403 7.382-2.183 11.41-2.183 17.11 0 31.03 13.919 31.03 31.03z"/>
        <path d="m117.432 59.889c-.791 1.446-.26 3.261 1.186 4.049 1.448.791 3.26.261 4.05-1.186 1.542-2.822 4.493-4.575 7.705-4.575h.003c4.818 0 8.755 3.921 8.774 8.741v.01.024c0 4.838-3.936 8.775-8.774 8.775-2.23 0-4.359-.838-5.989-2.359-1.202-1.123-3.094-1.059-4.217.147s-1.058 3.093.147 4.217c2.739 2.556 6.312 3.964 10.059 3.964 8.129 0 14.742-6.613 14.742-14.742v-.045c0-.005 0-.01 0-.016-.033-8.096-6.646-14.683-14.741-14.683h-.005c-5.393-.001-10.351 2.942-12.94 7.679z"/>
        <path d="m154.921 234.689c-6.895 1.646-14.336 2.48-22.115 2.48-5.872 0-11.846-.474-17.753-1.408-4.479-.709-8.821-1.914-12.906-3.58-8.098-3.305-14.932-8.287-19.763-14.412-.526-.668-1.309-1.078-2.156-1.132-.84-.044-1.677.257-2.28.852-8.172 8.046-18.524 12.674-31.645 14.151-1.638.186-2.815 1.661-2.632 3.299.185 1.638 1.654 2.817 3.298 2.632 13.287-1.496 24.057-5.969 32.814-13.646 5.265 5.806 12.155 10.536 20.109 13.779 4.51 1.839 9.296 3.168 14.228 3.95 6.215.982 12.502 1.482 18.686 1.482 8.246 0 16.153-.889 23.502-2.646 1.604-.382 2.591-1.99 2.209-3.595-.382-1.601-1.99-2.591-3.596-2.206z"/>
    </g>
</svg>
