<svg enable-background="new 0 0 256 256" height="256" viewBox="0 0 256 256" width="256" xmlns="http://www.w3.org/2000/svg">
    <g>
        <path d="m169.172 88.486c0-9.486-2.066-18.483-5.75-26.592-6.041-2.113-12.529-3.275-19.289-3.275-32.274 0-58.434 26.161-58.434 58.434 0 13.331 4.472 25.613 11.988 35.445 2.325.255 4.685.396 7.077.396 35.57-.001 64.408-28.837 64.408-64.408z" fill="#76ffd0"/>
        <path d="m185.866 62.691c1.662.05 3.146-1.318 3.189-3.038.043-1.721-1.318-3.15-3.039-3.191-.877-.022-12.261-.297-24.535-.497 1.903-1.832 3.856-4.199 5.662-7.268 6.27-10.661 10.01-19.645 10.167-20.022.656-1.59-.098-3.413-1.69-4.071-1.592-.66-3.413.097-4.071 1.688-.037.088-3.727 8.956-9.779 19.245-4.76 8.091-10.368 9.957-11.576 10.276-6.872-.07-13.059-.081-16.71.032-14.935.458-29.446 6.158-39.814 15.639-1.271 1.162-1.358 3.133-.197 4.403.615.673 1.456 1.014 2.301 1.014.752 0 1.503-.27 2.101-.817 9.287-8.49 22.335-13.596 35.801-14.009 11.752-.36 51.785.606 52.19.616z"/>
        <path d="m89.151 80.97c-1.442-.938-3.371-.531-4.312.912-10.153 15.604-12.261 36.759-6.124 61.263-2.438 2.717-7.857 9.445-12.092 19.678-5.074 12.26-9.334 32.104-.81 57.014.443 1.294 1.652 2.108 2.948 2.108.334 0 .674-.054 1.009-.169 1.628-.557 2.497-2.329 1.939-3.958-15.023-43.908 11.488-70.443 12.62-71.547.81-.785 1.133-1.945.845-3.036-6.2-23.47-4.51-43.51 4.89-57.955.937-1.442.529-3.372-.913-4.31z"/>
        <path d="m192.014 164.144c-13.643-.359-50.673-1.696-58.07-3.545-9.897-2.474-13.355-14.736-15.883-23.689-.469-1.657-2.19-2.621-3.845-2.153-1.657.467-2.621 2.189-2.154 3.846 2.106 7.461 5.032 17.812 12.173 23.837l9.017 66.497c.211 1.564 1.55 2.699 3.085 2.699.139 0 .279-.01.423-.028 1.705-.231 2.9-1.802 2.669-3.508l-8.387-61.856c.453.147.913.284 1.389.403 9.573 2.393 57.39 3.675 59.421 3.728.029 0 .055.002.084.002 1.684 0 3.068-1.343 3.113-3.035.045-1.721-1.312-3.153-3.035-3.198z"/>
    </g>
</svg>
