<svg enable-background="new 0 0 256 256" height="256" viewBox="0 0 256 256" width="256" xmlns="http://www.w3.org/2000/svg">
    <g>
        <circle cx="150.93" cy="184.82" fill="#76ffd0" r="55.044"/>
        <path d="m144.66 97.324v-6.414c4.897-.578 8.714-4.749 8.714-9.801v-7.531c.2-.086.395-.188.579-.322 9.868-7.248 15.76-18.875 15.76-31.101 0-21.263-17.297-38.561-38.561-38.561-21.262 0-38.56 17.298-38.56 38.561 0 12.292 5.659 23.564 15.524 30.924.253.189.53.317.814.413v7.616c0 5.052 3.816 9.223 8.714 9.801v6.414c-16.705 2.925-31.597 11.167-42.864 22.922l-5.265-5.263 3.248-3.248c2.754-2.757 2.752-7.241-.004-9.996l-3.557-3.558c-1.331-1.332-3.106-2.066-5-2.066-1.891 0-3.666.734-4.996 2.066l-10.431 10.428c-1.332 1.332-2.067 3.108-2.067 5 0 1.893.735 3.668 2.067 4.999l3.558 3.559c1.333 1.331 3.108 2.064 5 2.064s3.667-.733 4.996-2.064l3.077-3.075 5.486 5.487c-11.164 13.515-17.878 30.833-17.878 49.69 0 43.085 35.051 78.137 78.136 78.137s78.138-35.052 78.138-78.137c.002-38.476-27.962-70.524-64.628-76.944zm-86.437 20.735c-.315.315-.691.363-.888.363s-.575-.047-.893-.363l-3.559-3.559c-.315-.316-.363-.693-.363-.891 0-.197.048-.574.363-.891l10.431-10.43c.316-.316.694-.363.89-.363.198 0 .575.047.892.363l3.559 3.559c.483.483.483 1.3.002 1.782zm40.18-75.904c0-18.059 14.69-32.751 32.749-32.751 18.061 0 32.751 14.692 32.751 32.751 0 9.142-3.882 17.888-10.529 24.051v-5.721c0-5.446-4.431-9.876-9.875-9.876h-24.691c-5.444 0-9.876 4.43-9.876 9.876v5.722c-6.727-6.186-10.529-14.774-10.529-24.052zm16.338 38.954v-20.624c0-2.242 1.824-4.066 4.066-4.066h24.691c2.241 0 4.065 1.824 4.065 4.066v20.624c0 2.242-1.824 4.067-4.065 4.067h-24.691c-2.242 0-4.066-1.825-4.066-4.067zm8.715 9.876h15.395v5.529c-2.534-.249-5.101-.383-7.698-.383-2.596 0-5.162.134-7.696.383v-5.529zm7.696 155.611c-39.881 0-72.327-32.446-72.327-72.328 0-39.881 32.446-72.327 72.327-72.327 39.883 0 72.328 32.446 72.328 72.327 0 39.882-32.445 72.328-72.328 72.328z"/>
        <path d="m131.152 107.605c-36.757 0-66.662 29.905-66.662 66.663s29.905 66.663 66.662 66.663c36.759 0 66.664-29.905 66.664-66.663s-29.905-66.663-66.664-66.663zm0 127.517c-33.555 0-60.853-27.299-60.853-60.854 0-33.556 27.299-60.853 60.853-60.853 33.557 0 60.855 27.298 60.855 60.853s-27.298 60.854-60.855 60.854z"/>
        <path d="m134 162.817c.038-.187.058-.379.058-.577v-40.666c0-1.604-1.301-2.905-2.905-2.905-1.602 0-2.904 1.301-2.904 2.905v40.666c0 .198.021.391.059.578-5.14 1.28-8.965 5.921-8.965 11.45 0 6.513 5.299 11.812 11.813 11.812s11.812-5.299 11.812-11.812c0-5.531-3.827-10.172-8.968-11.451zm-2.845 17.454c-3.31 0-6.005-2.693-6.005-6.003 0-3.309 2.694-6.003 6.005-6.003s6.002 2.693 6.002 6.003-2.691 6.003-6.002 6.003z"/>
    </g>
</svg>
