<svg enable-background="new 0 0 256 256" height="256" viewBox="0 0 256 256" width="256" xmlns="http://www.w3.org/2000/svg">
    <g>
        <path d="m66.021 92.783v105.479h140.417v-105.479zm47.644 90.591 9.582-37.999h-14.46l36.219-39.078-9.579 37.996h14.458z" fill="#76ffd0"/>
        <path d="m194.13 57.995c-5.731-5.742-13.872-8.666-24.189-8.706v-3.565h2.217c1.709 0 3.134-1.448 3.253-3.154.01-.145.017-.293.017-.446v-14.92c0-6.385-5.194-11.58-11.579-11.58h-74.6c-6.384 0-11.58 5.194-11.58 11.58v14.92c0 .149.009.294.021.493.077 1.738 1.509 3.107 3.248 3.107h2.218v3.7c-10.542.69-18.765 3.936-24.476 9.682-9.225 9.282-9.146 22.464-9.115 27.426l.003 138.101c0 8.681 7.062 15.743 15.743 15.743h122.481c8.68 0 15.742-7.062 15.742-15.743v-137.814c.011-5.296.04-19.363-9.404-28.824zm-138.058 143.64h10.789c1.796 0 3.252-1.456 3.252-3.252s-1.456-3.252-3.252-3.252h-10.789v-95.282h114.24c1.796 0 3.252-1.456 3.252-3.252s-1.456-3.253-3.252-3.253h-114.24v-3.679h140.958v3.679h-11.105c-1.797 0-3.253 1.456-3.253 3.253s1.456 3.252 3.253 3.252h11.105v95.283h-114.557c-1.796 0-3.252 1.456-3.252 3.252s1.456 3.252 3.252 3.252h114.557v4.368h-140.958zm44.846-155.911c1.796 0 3.252-1.456 3.252-3.253 0-1.796-1.456-3.252-3.252-3.252h-16.743v-12.015c0-2.798 2.276-5.075 5.074-5.075h74.599c2.798 0 5.074 2.276 5.074 5.075l-.001 12.015h-52.392c-1.796 0-3.252 1.456-3.252 3.252s1.456 3.253 3.252 3.253h46.905v3.557h-73.773v-3.557zm-37.623 17.967c5.214-5.246 13.37-7.906 24.243-7.906h82.191c8.631 0 15.29 2.29 19.796 6.804 5.997 6.009 7.204 14.891 7.444 20.569h-140.864c.193-5.369 1.295-13.536 7.19-19.467zm124.498 170.18h-122.481c-5.094 0-9.239-4.145-9.239-9.238v-12.124h140.957v12.124c0 5.093-4.144 9.238-9.237 9.238z"/>
        <path d="m102.533 151.056h10.285l-8.56 33.951c-.363 1.441.296 2.945 1.602 3.654.489.266 1.021.394 1.551.394.882 0 1.754-.359 2.387-1.041l36.22-39.08c.878-.947 1.111-2.327.595-3.512-.518-1.186-1.688-1.951-2.981-1.951h-10.285l8.561-33.949c.363-1.441-.296-2.945-1.602-3.654s-2.926-.442-3.937.647l-36.221 39.078c-.878.947-1.111 2.327-.594 3.512.516 1.185 1.686 1.951 2.979 1.951zm29.954-30.785-6.47 25.657c-.245.973-.028 2.004.589 2.794.616.792 1.563 1.254 2.565 1.254h7.01l-22.504 24.281 6.47-25.659c.244-.971.027-2.003-.589-2.793-.616-.791-1.563-1.254-2.565-1.254h-7.011z"/>
    </g>
</svg>
