<svg enable-background="new 0 0 256 256" height="256" viewBox="0 0 256 256" width="256" xmlns="http://www.w3.org/2000/svg">
    <g>
        <path d="m179.373 84.927c-10.618-14.619-27.831-24.13-47.278-24.13-19.446 0-36.663 9.511-47.277 24.126l31.054 26.747h32.445z" fill="#76ffd0"/>
        <path d="m173.859 78.304c-11.595-15.962-30.268-25.492-49.953-25.492-19.687 0-38.36 9.529-49.953 25.49-1.01 1.392-.785 3.325.518 4.447l31.054 26.747c.6.517 1.366.801 2.157.801h16.156c.091.007.182.035.272.035.138 0 .274-.017.409-.035h15.608c.791 0 1.557-.284 2.157-.801l31.056-26.744c1.304-1.122 1.529-3.057.519-4.448zm-34.959 25.381h-10.524l8.746-34.122c.453-1.768-.613-3.57-2.382-4.023-1.77-.455-3.57.613-4.023 2.382l-9.167 35.763h-12.641l-27.754-23.905c10.425-12.8 26.187-20.357 42.751-20.357 16.562 0 32.323 7.558 42.751 20.359z"/>
        <path d="m221.481 19.969h-186.962c-8.023 0-14.551 6.528-14.551 14.551v186.96c0 8.023 6.527 14.551 14.551 14.551h186.961c8.023 0 14.551-6.527 14.551-14.551v-186.96c0-8.023-6.527-14.551-14.55-14.551zm7.939 201.511c0 4.378-3.561 7.939-7.939 7.939h-186.962c-4.378 0-7.939-3.562-7.939-7.939v-186.96c0-4.377 3.561-7.939 7.939-7.939h186.961c4.378 0 7.939 3.562 7.939 7.939v186.96z"/>
        <path d="m212.117 35.215h-5.99c-1.826 0-3.306 1.479-3.306 3.306 0 1.826 1.48 3.306 3.306 3.306h5.99c1.076 0 1.984.908 1.984 1.983v168.237c0 1.075-.908 1.983-1.984 1.983h-168.237c-1.075 0-1.983-.908-1.983-1.983v-125.896c0-1.826-1.48-3.306-3.306-3.306-1.827 0-3.306 1.48-3.306 3.306v125.897c0 4.739 3.856 8.595 8.595 8.595h168.237c4.74 0 8.596-3.856 8.596-8.595v-168.238c0-4.739-3.856-8.595-8.596-8.595z"/>
        <path d="m38.591 59.043c1.826 0 3.306-1.48 3.306-3.306v-11.927c0-1.075.908-1.983 1.983-1.983h138.446c1.825 0 3.305-1.48 3.305-3.306s-1.48-3.306-3.305-3.306h-138.446c-4.739 0-8.595 3.856-8.595 8.595v11.927c0 1.826 1.479 3.306 3.306 3.306z"/>
    </g>
</svg>
