<svg enable-background="new 0 0 256 256" viewBox="0 0 256 256" xmlns="http://www.w3.org/2000/svg">
    <path d="m174.2 194.4c0 20.9-16.9 37.8-37.8 37.8s-37.8-16.9-37.8-37.8 16.9-37.8 37.8-37.8c20.9.1 37.8 17 37.8 37.8z" fill="#76ffd0"/>
    <path d="m126.8 161.3c-5.6 0-11.1 1.6-15.9 4.6-4.4 2.7-8 6.6-10.4 11.1-.8 1.5-.3 3.4 1.3 4.3 1.5.8 3.4.3 4.3-1.3 1.9-3.6 4.8-6.6 8.2-8.8 3.8-2.4 8.1-3.6 12.5-3.6 8.2 0 15.7 4.1 20 11.1 2.4 3.8 3.6 8.1 3.6 12.5 0 8.2-4.1 15.7-11.1 20-3.8 2.4-8.1 3.6-12.5 3.6-8.2 0-15.7-4.1-20-11.1-1.7-2.7-2.8-5.6-3.3-8.7-.3-1.7-1.9-2.9-3.6-2.6s-2.9 1.9-2.6 3.6c.6 3.9 2.1 7.6 4.2 11 5.5 8.8 15 14 25.4 14 5.6 0 11.1-1.6 15.9-4.6 8.8-5.5 14-15 14-25.4 0-5.6-1.6-11.1-4.6-15.9-5.5-8.6-15-13.8-25.4-13.8z"/>
    <path d="m191.2 58.1-15.9-33.9v-.1c-.5-1.2-1.6-2-2.9-2h-88.7c-1.1 0-2.1.6-2.7 1.5-.1.2-.2.3-.3.5l-15.9 34c-.4.9-.4 1.9.1 2.8l39.1 75.3c-2.3 3.1-3.6 6.9-3.6 10.9v10.7c-9.8 7.8-16.1 19.8-16.1 33.3 0 23.5 19.1 42.6 42.6 42.6s42.6-19.1 42.6-42.6c0-12.3-5.2-23.4-13.6-31.2v-12.9c0-4.1-1.3-8-3.7-11.1l39.1-75.2c.3-.6.4-1.7-.1-2.6zm-36.7-5.8c-.1 0-.2 0-.3 0h-42.2c-1.7 0-3.2 1.4-3.2 3.2 0 1.7 1.4 3.2 3.2 3.2h39.2l-23.4 43.5-39.1-73.7h78.7zm-70.8-19.7 56.4 106.2h-27.6l-41.4-79.4zm79.4 158.6c0 20-16.3 36.3-36.3 36.3s-36.3-16.3-36.3-36.3 16.3-36.3 36.3-36.3c20 .1 36.3 16.3 36.3 36.3zm-13.6-44v8c-6.6-4.1-14.3-6.6-22.7-6.6-7.3 0-14.2 1.8-20.2 5.1v-6.6c0-1.5.3-2.9.8-4.3l.3.5c.5 1 1.6 1.7 2.8 1.7h34.8.1.1c1.1 0 2.2-.6 2.8-1.7l.4-.7c.5 1.5.8 3 .8 4.6zm-4.1-11.8-14.1-26.6 41-76.2 12.6 26.8z"/>
</svg>
